<svg xmlns:dc="http://purl.org/dc/elements/1.1/" xmlns:cc="http://creativecommons.org/ns#" xmlns:rdf="http://www.w3.org/1999/02/22-rdf-syntax-ns#" xmlns:svg="http://www.w3.org/2000/svg" xmlns="http://www.w3.org/2000/svg" xmlns:sodipodi="http://sodipodi.sourceforge.net/DTD/sodipodi-0.dtd" xmlns:inkscape="http://www.inkscape.org/namespaces/inkscape" viewBox="1.8 -01 20.458333 29.0729175" version="1.1" x="0px" y="0px" width="270px" height="250px"><g transform="translate(0,-270.54165)"><path style="color:#000000;font-style:normal;font-variant:normal;font-weight:normal;font-stretch:normal;font-size:medium;line-height:normal;font-family:sans-serif;font-variant-ligatures:normal;font-variant-position:normal;font-variant-caps:normal;font-variant-numeric:normal;font-variant-alternates:normal;font-feature-settings:normal;text-indent:0;text-align:start;text-decoration:none;text-decoration-line:none;text-decoration-style:solid;text-decoration-color:#000000;letter-spacing:normal;word-spacing:normal;text-transform:none;writing-mode:lr-tb;direction:ltr;text-orientation:mixed;dominant-baseline:auto;baseline-shift:baseline;text-anchor:start;white-space:normal;shape-padding:0;clip-rule:nonzero;display:inline;overflow:visible;visibility:visible;opacity:1;isolation:auto;mix-blend-mode:normal;color-interpolation:sRGB;color-interpolation-filters:linearRGB;solid-color:#000000;solid-opacity:1;vector-effect:none;fill:#d4a24a;fill-opacity:1;fill-rule:nonzero;stroke:none;stroke-width:2.00000024;stroke-linecap:round;stroke-linejoin:miter;stroke-miterlimit:4;stroke-dasharray:none;stroke-dashoffset:0;stroke-opacity:1;paint-order:stroke fill markers;color-rendering:auto;image-rendering:auto;shape-rendering:auto;text-rendering:auto;enable-background:accumulate" d="M 49.998047 14.207031 C 46.009821 14.207031 42.755867 17.460986 42.755859 21.449219 C 42.75586 21.74525 42.779627 22.035276 42.814453 22.322266 L 41.767578 22.564453 L 41.943359 23.316406 L 42.238281 23.25 L 41.869141 23.568359 L 42.224609 23.980469 L 42.371094 24.150391 L 42.417969 24.111328 L 42.867188 24.416016 L 43.175781 23.953125 L 43.21875 23.972656 C 44.247874 26.724026 46.897589 28.699219 49.998047 28.699219 C 52.804578 28.699219 55.242665 27.081341 56.443359 24.734375 L 76.865234 45.15625 L 74.957031 44.822266 A 0.50004997 0.50004997 0 0 0 74.734375 45.796875 A 0.50004997 0.50004997 0 0 0 74.785156 45.804688 L 78.347656 46.427734 L 78.355469 46.427734 A 0.50004997 0.50004997 0 0 0 78.404297 46.439453 A 0.50004997 0.50004997 0 0 0 78.453125 46.447266 A 0.50004997 0.50004997 0 0 0 78.916016 45.638672 A 0.50004997 0.50004997 0 0 1 78.914062 45.636719 L 77.792969 42.306641 A 0.50046931 0.50046931 0 0 0 76.847656 42.628906 L 77.376953 44.207031 L 57.0625 23.892578 L 56.646484 24.308594 C 57.026056 23.429709 57.238279 22.463896 57.238281 21.449219 C 57.238274 17.460986 53.986269 14.207031 49.998047 14.207031 z M 49.998047 16.208984 C 52.905388 16.208984 55.246086 18.541855 55.246094 21.449219 C 55.246086 24.356545 52.905388 26.697266 49.998047 26.697266 C 47.090702 26.697266 44.755867 24.356545 44.755859 21.449219 C 44.755867 18.541855 47.090702 16.208984 49.998047 16.208984 z M 41.013672 22.734375 L 39.507812 23.080078 L 39.685547 23.833984 L 41.191406 23.486328 L 41.013672 22.734375 z M 38.755859 23.25 L 37.248047 23.597656 L 37.425781 24.349609 L 38.931641 24.003906 L 38.755859 23.25 z M 36.496094 23.767578 L 34.990234 24.113281 L 35.167969 24.867188 L 36.673828 24.519531 L 36.496094 23.767578 z M 41.287109 24.070312 L 40.113281 25.082031 L 40.623047 25.664062 L 41.742188 24.693359 L 40.931641 25.908203 L 41.574219 26.335938 L 41.867188 25.898438 L 42.386719 26.144531 L 43.042969 24.75 L 42.349609 24.416016 L 42.140625 24.857422 L 41.789062 24.623047 L 41.777344 24.638672 L 41.287109 24.070312 z M 34.236328 24.283203 L 32.730469 24.630859 L 32.908203 25.384766 L 34.414062 25.037109 L 34.236328 24.283203 z M 7.0800781 24.703125 C 5.9272458 24.703125 5 25.632324 5 26.785156 L 5 30.166016 C 5 31.318848 5.9272458 32.248047 7.0800781 32.248047 L 17.355469 32.248047 C 18.508301 32.248047 19.435547 31.318848 19.435547 30.166016 L 19.435547 29.337891 L 19.599609 29.671875 L 20.146484 29.398438 L 20.173828 29.421875 L 20.230469 29.357422 L 20.292969 29.326172 L 20.279297 29.300781 L 20.683594 28.837891 L 20.091797 28.320312 L 20.853516 28.144531 L 20.683594 27.392578 L 19.435547 27.679688 L 19.435547 26.785156 C 19.435547 25.632324 18.508301 24.703125 17.355469 24.703125 L 7.0800781 24.703125 z M 31.978516 24.808594 L 30.472656 25.148438 L 30.650391 25.900391 L 32.15625 25.560547 L 31.978516 24.808594 z M 29.71875 25.324219 L 28.212891 25.664062 L 28.382812 26.417969 L 29.896484 26.078125 L 29.71875 25.324219 z M 39.529297 25.583984 L 38.355469 26.59375 L 38.865234 27.177734 L 40.03125 26.173828 L 39.529297 25.583984 z M 27.460938 25.841797 L 25.955078 26.181641 L 26.125 26.933594 L 27.630859 26.59375 L 27.460938 25.841797 z M 25.201172 26.357422 L 23.695312 26.697266 L 23.865234 27.451172 L 25.371094 27.111328 L 25.201172 26.357422 z M 41.361328 26.513672 L 41.138672 26.978516 L 40.697266 27.908203 L 41.398438 28.240234 L 42.054688 26.845703 L 41.361328 26.513672 z M 41.138672 26.978516 L 40.496094 26.550781 L 39.640625 27.828125 L 40.283203 28.263672 L 41.138672 26.978516 z M 22.943359 26.875 L 21.4375 27.222656 L 21.607422 27.974609 L 23.113281 27.628906 L 22.943359 26.875 z M 37.773438 27.095703 L 36.607422 28.107422 L 37.109375 28.691406 L 38.283203 27.6875 L 37.773438 27.095703 z M 39.205078 28.46875 L 38.349609 29.753906 L 38.990234 30.181641 L 39.847656 28.904297 L 39.205078 28.46875 z M 40.371094 28.609375 L 39.714844 30.005859 L 40.408203 30.337891 L 41.066406 28.941406 L 40.371094 28.609375 z M 36.023438 28.617188 L 34.849609 29.621094 L 35.359375 30.210938 L 36.525391 29.201172 L 36.023438 28.617188 z M 21.259766 29.347656 L 20.75 29.931641 L 21.916016 30.949219 L 22.425781 30.367188 L 21.259766 29.347656 z M 20.632812 30.019531 L 19.939453 30.359375 L 20.625 31.748047 L 21.310547 31.408203 L 20.632812 30.019531 z M 34.267578 30.130859 L 33.09375 31.134766 L 33.601562 31.724609 L 34.769531 30.712891 L 34.267578 30.130859 z M 37.914062 30.396484 L 37.056641 31.681641 L 37.699219 32.109375 L 38.554688 30.824219 L 37.914062 30.396484 z M 39.382812 30.707031 L 38.724609 32.101562 L 39.419922 32.433594 L 40.083984 31.039062 L 39.382812 30.707031 z M 23.001953 30.876953 L 22.492188 31.458984 L 23.658203 32.478516 L 24.167969 31.894531 L 23.001953 30.876953 z M 32.509766 31.644531 L 31.34375 32.654297 L 31.845703 33.238281 L 33.019531 32.226562 L 32.509766 31.644531 z M 21.658203 32.101562 L 20.964844 32.441406 L 21.644531 33.828125 L 22.337891 33.488281 L 21.658203 32.101562 z M 36.621094 32.322266 L 35.765625 33.599609 L 36.408203 34.035156 L 37.263672 32.751953 L 36.621094 32.322266 z M 24.744141 32.404297 L 24.234375 32.986328 L 25.400391 34.005859 L 25.910156 33.421875 L 24.744141 32.404297 z M 38.392578 32.802734 L 37.736328 34.197266 L 38.429688 34.529297 L 39.09375 33.134766 L 38.392578 32.802734 z M 30.759766 33.15625 L 29.585938 34.167969 L 30.095703 34.751953 L 31.261719 33.740234 L 30.759766 33.15625 z M 26.486328 33.931641 L 25.976562 34.515625 L 27.142578 35.533203 L 27.652344 34.951172 L 26.486328 33.931641 z M 22.677734 34.183594 L 21.982422 34.523438 L 22.662109 35.910156 L 23.355469 35.570312 L 22.677734 34.183594 z M 35.330078 34.242188 L 34.472656 35.527344 L 35.115234 35.955078 L 35.972656 34.677734 L 35.330078 34.242188 z M 29.003906 34.669922 L 27.830078 35.681641 L 27.931641 35.798828 L 27.71875 36.042969 L 28.884766 37.0625 L 29.394531 36.478516 L 28.746094 35.912109 L 29.505859 35.253906 L 29.003906 34.669922 z M 37.404297 34.898438 L 36.746094 36.294922 L 37.441406 36.626953 L 38.105469 35.230469 L 37.404297 34.898438 z M 34.037109 36.167969 L 33.181641 37.453125 L 33.824219 37.880859 L 34.679688 36.597656 L 34.037109 36.167969 z M 27.246094 36.183594 L 26.080078 37.195312 L 26.582031 37.777344 L 27.755859 36.767578 L 27.246094 36.183594 z M 23.703125 36.265625 L 23.009766 36.603516 L 23.689453 37.992188 L 24.382812 37.644531 L 23.703125 36.265625 z M 29.970703 36.988281 L 29.460938 37.572266 L 30.626953 38.589844 L 31.136719 38.007812 L 29.970703 36.988281 z M 36.414062 36.996094 L 35.757812 38.390625 L 36.458984 38.722656 L 37.115234 37.328125 L 36.414062 36.996094 z M 25.496094 37.697266 L 24.730469 38.357422 L 24.722656 38.339844 L 24.027344 38.677734 L 24.707031 40.066406 L 25.400391 39.726562 L 25.082031 39.076172 L 25.998047 38.287109 L 25.496094 37.697266 z M 32.746094 38.095703 L 32.1875 38.929688 L 31.712891 38.515625 L 31.203125 39.099609 L 32.369141 40.119141 L 32.878906 39.535156 L 32.775391 39.443359 L 33.388672 38.523438 L 32.746094 38.095703 z M 35.425781 39.091797 L 34.769531 40.486328 L 35.470703 40.820312 L 36.126953 39.416016 L 35.425781 39.091797 z M 23.740234 39.210938 L 22.566406 40.220703 L 23.076172 40.804688 L 24.242188 39.800781 L 23.740234 39.210938 z M 7.0800781 39.919922 C 5.9272458 39.919922 5 40.849121 5 42.001953 L 5 45.382812 C 5 46.535645 5.9272458 47.464844 7.0800781 47.464844 L 17.355469 47.464844 C 18.508301 47.464844 19.435547 46.535645 19.435547 45.382812 L 19.435547 44.378906 L 19.894531 45.027344 L 20.521484 44.576172 L 20.191406 44.113281 L 20.574219 44.207031 L 20.736328 43.535156 L 20.097656 43.380859 L 20.736328 42.828125 L 20.234375 42.244141 L 19.435547 42.927734 L 19.435547 42.001953 C 19.435547 40.849121 18.508301 39.919922 17.355469 39.919922 L 7.0800781 39.919922 z M 31.455078 40.015625 L 30.597656 41.298828 L 31.240234 41.726562 L 32.095703 40.451172 L 31.455078 40.015625 z M 33.455078 40.044922 L 32.945312 40.626953 L 34.111328 41.646484 L 34.347656 41.375 L 33.779297 42.583984 L 34.480469 42.916016 L 34.792969 42.248047 L 35.853516 43.173828 L 36.363281 42.591797 L 35.197266 41.572266 L 35.011719 41.785156 L 35.138672 41.513672 L 34.488281 41.214844 L 34.621094 41.0625 L 33.455078 40.044922 z M 25.740234 40.421875 L 25.054688 40.759766 L 25.732422 42.148438 L 26.427734 41.808594 L 25.740234 40.421875 z M 21.982422 40.730469 L 20.816406 41.734375 L 21.318359 42.326172 L 22.492188 41.314453 L 21.982422 40.730469 z M 30.162109 41.941406 L 29.306641 43.226562 L 29.949219 43.654297 L 30.804688 42.369141 L 30.162109 41.941406 z M 26.767578 42.501953 L 26.072266 42.841797 L 26.751953 44.230469 L 27.445312 43.890625 L 26.767578 42.501953 z M 49.998047 42.761719 C 46.572359 42.761719 43.694629 45.162897 42.949219 48.367188 L 42.171875 47.685547 L 41.664062 48.267578 L 42.277344 48.808594 L 41.53125 48.623047 L 41.367188 49.292969 L 42.710938 49.626953 L 42.791016 49.296875 C 42.77351 49.476386 42.767721 49.658761 42.763672 49.841797 L 42.443359 50.166016 L 42.232422 49.626953 L 40.792969 50.179688 L 41.066406 50.896484 L 42.121094 50.492188 L 41.802734 50.814453 L 42.357422 51.353516 L 42.816406 50.888672 C 43.256918 54.460517 46.310573 57.244141 49.998047 57.244141 C 53.756818 57.244141 56.860257 54.352942 57.205078 50.681641 L 76.794922 50.681641 L 75.261719 51.523438 A 0.50010082 0.50010082 0 1 0 75.697266 52.423828 A 0.50004997 0.50004997 0 0 0 75.742188 52.396484 L 78.912109 50.65625 L 78.919922 50.652344 A 0.50004997 0.50004997 0 0 0 78.962891 50.628906 L 78.962891 50.632812 A 0.50004997 0.50004997 0 0 0 79.007812 50.605469 A 0.50004997 0.50004997 0 0 0 78.863281 49.6875 A 0.50004997 0.50004997 0 0 1 78.861328 49.685547 L 75.904297 47.787109 A 0.50046931 0.50046931 0 0 0 75.638672 47.720703 A 0.50046931 0.50046931 0 0 0 75.367188 48.630859 L 76.9375 49.640625 L 57.220703 49.640625 C 57.03013 45.82035 53.864284 42.761719 49.998047 42.761719 z M 36.939453 43.099609 L 36.429688 43.683594 L 37.595703 44.703125 L 38.105469 44.119141 L 36.939453 43.099609 z M 33.455078 43.285156 L 32.791016 44.679688 L 33.492188 45.011719 L 34.148438 43.609375 L 33.455078 43.285156 z M 21.408203 43.699219 L 21.244141 44.371094 L 22.587891 44.703125 L 22.751953 44.03125 L 21.408203 43.699219 z M 28.871094 43.869141 L 28.042969 45.101562 L 27.785156 44.583984 L 27.091797 44.923828 L 27.369141 45.486328 L 27.283203 45.845703 L 27.501953 45.900391 L 26.722656 47.072266 L 27.365234 47.5 L 28.220703 46.222656 L 28.109375 46.146484 L 28.234375 46.083984 L 28.619141 46.179688 L 28.789062 45.507812 L 28.716797 45.490234 L 29.513672 44.296875 L 28.871094 43.869141 z M 23.421875 44.193359 L 23.253906 44.865234 L 24.595703 45.189453 L 24.759766 44.517578 L 23.421875 44.193359 z M 38.681641 44.628906 L 38.171875 45.210938 L 39.337891 46.230469 L 39.847656 45.646484 L 38.681641 44.628906 z M 25.429688 44.6875 L 25.267578 45.359375 L 26.611328 45.683594 L 26.773438 45.011719 L 25.429688 44.6875 z M 49.998047 44.753906 C 52.905388 44.753906 55.246086 47.094627 55.246094 50.001953 C 55.246101 52.909317 52.905403 55.244141 49.998047 55.244141 C 47.090691 55.244141 44.755848 52.909317 44.755859 50.001953 C 44.755867 47.094627 47.090702 44.753906 49.998047 44.753906 z M 28.089844 45.195312 L 28.410156 45.414062 L 28.167969 45.353516 L 28.089844 45.195312 z M 20.972656 45.205078 L 20.34375 45.654297 L 21.244141 46.910156 L 21.873047 46.466797 L 20.972656 45.205078 z M 32.464844 45.380859 L 32.027344 46.298828 L 31.46875 46.164062 L 31.306641 46.835938 L 32.650391 47.160156 L 32.8125 46.488281 L 32.794922 46.484375 L 33.160156 45.707031 L 32.464844 45.380859 z M 29.453125 45.669922 L 29.291016 46.341797 L 30.634766 46.666016 L 30.796875 46.001953 L 29.453125 45.669922 z M 40.429688 46.15625 L 39.921875 46.740234 L 41.080078 47.757812 L 41.589844 47.175781 L 40.429688 46.15625 z M 82.644531 46.228516 C 81.491699 46.228516 80.564453 47.155761 80.564453 48.308594 L 80.564453 51.691406 C 80.564453 52.844239 81.491699 53.771484 82.644531 53.771484 L 92.919922 53.771484 C 94.072754 53.771484 95 52.844239 95 51.691406 L 95 48.308594 C 95 47.155761 94.072754 46.228516 92.919922 46.228516 L 82.644531 46.228516 z M 33.484375 46.650391 L 33.314453 47.322266 L 34.658203 47.654297 L 34.820312 46.982422 L 33.484375 46.650391 z M 28.810547 46.658203 L 28.117188 47.005859 L 28.796875 48.386719 L 29.490234 48.046875 L 28.810547 46.658203 z M 22.316406 47.09375 L 21.6875 47.544922 L 22.587891 48.798828 L 23.216797 48.349609 L 22.316406 47.09375 z M 35.492188 47.146484 L 35.330078 47.818359 L 36.673828 48.142578 L 36.835938 47.478516 L 35.492188 47.146484 z M 31.476562 47.478516 L 30.8125 48.873047 L 31.513672 49.205078 L 32.169922 47.802734 L 31.476562 47.478516 z M 37.507812 47.640625 L 37.345703 48.3125 L 38.681641 48.636719 L 38.851562 47.964844 L 37.507812 47.640625 z M 26.287109 47.714844 L 25.429688 48.998047 L 26.072266 49.425781 L 26.929688 48.142578 L 26.287109 47.714844 z M 39.515625 48.134766 L 39.353516 48.798828 L 40.697266 49.130859 L 40.859375 48.458984 L 39.515625 48.134766 z M 29.830078 48.740234 L 29.136719 49.080078 L 29.822266 50.466797 L 30.138672 50.3125 L 29.830078 50.96875 L 30.197266 51.144531 L 30.162109 51.162109 L 30.841797 52.548828 L 31.535156 52.208984 L 30.855469 50.822266 L 30.716797 50.890625 L 31.181641 49.898438 L 30.486328 49.574219 L 30.367188 49.826172 L 29.830078 48.740234 z M 23.666016 48.984375 L 23.039062 49.425781 L 23.931641 50.689453 L 24.558594 50.238281 L 23.666016 48.984375 z M 24.994141 49.632812 L 24.138672 50.917969 L 24.548828 51.197266 L 24.382812 51.316406 L 25.275391 52.572266 L 25.902344 52.128906 L 25.058594 50.935547 L 25.636719 50.068359 L 24.994141 49.632812 z M 40.068359 50.453125 L 38.628906 51.005859 L 38.902344 51.730469 L 40.349609 51.175781 L 40.068359 50.453125 z M 37.90625 51.279297 L 36.466797 51.833984 L 36.740234 52.556641 L 38.185547 52.003906 L 37.90625 51.279297 z M 41.265625 51.361328 L 40.179688 52.46875 L 40.726562 53.007812 L 41.810547 51.90625 L 41.265625 51.361328 z M 23.703125 51.560547 L 22.847656 52.84375 L 23.488281 53.273438 L 24.345703 51.988281 L 23.703125 51.560547 z M 29.498047 51.671875 L 28.841797 53.066406 L 29.535156 53.398438 L 30.199219 51.996094 L 29.498047 51.671875 z M 35.742188 52.113281 L 34.302734 52.667969 L 34.576172 53.382812 L 36.015625 52.830078 L 35.742188 52.113281 z M 26.353516 52.755859 L 25.726562 53.207031 L 26.626953 54.460938 L 27.253906 54.011719 L 26.353516 52.755859 z M 31.875 52.904297 L 31.181641 53.244141 L 31.867188 54.630859 L 32.560547 54.283203 L 32.509766 54.179688 L 33.853516 53.664062 L 33.580078 52.941406 L 32.162109 53.482422 L 31.875 52.904297 z M 39.632812 53.013672 L 38.548828 54.113281 L 39.101562 54.660156 L 40.1875 53.552734 L 39.632812 53.013672 z M 22.412109 53.486328 L 21.554688 54.771484 L 22.197266 55.199219 L 23.052734 53.914062 L 22.412109 53.486328 z M 28.509766 53.767578 L 27.939453 54.976562 L 27.697266 54.638672 L 27.070312 55.087891 L 27.673828 55.933594 L 27.519531 55.863281 L 26.863281 57.259766 L 27.564453 57.583984 L 28.220703 56.1875 L 28.207031 56.181641 L 28.597656 55.900391 L 28.472656 55.724609 L 29.527344 55.324219 L 29.253906 54.601562 L 28.90625 54.734375 L 29.210938 54.091797 L 28.509766 53.767578 z M 31.417969 53.767578 L 29.970703 54.320312 L 30.251953 55.044922 L 31.691406 54.490234 L 31.417969 53.767578 z M 78.5 53.869141 A 0.50004997 0.50004997 0 0 0 78.453125 53.873047 A 0.50004997 0.50004997 0 0 0 78.404297 53.880859 A 0.50004997 0.50004997 0 0 0 78.355469 53.892578 L 78.347656 53.892578 L 74.785156 54.515625 A 0.50004997 0.50004997 0 0 0 74.734375 54.523438 A 0.50004997 0.50004997 0 0 0 74.957031 55.498047 L 76.867188 55.164062 L 56.546875 75.484375 C 55.388671 73.022315 52.890638 71.306641 49.998047 71.306641 C 46.906774 71.306641 44.264195 73.265472 43.228516 76.001953 L 43.117188 75.779297 L 42.861328 75.904297 L 42.498047 75.396484 L 41.925781 75.804688 L 41.544922 75.513672 L 41.072266 76.126953 L 42.298828 77.064453 L 42.302734 77.058594 L 42.208984 77.759766 L 42.791016 77.837891 C 42.767994 78.072045 42.755858 78.308805 42.755859 78.548828 C 42.755867 82.537061 46.009821 85.789062 49.998047 85.789062 C 53.986269 85.789062 57.238274 82.537061 57.238281 78.548828 C 57.238284 77.726567 57.09426 76.938928 56.839844 76.201172 L 57.0625 76.421875 L 77.376953 56.115234 L 76.847656 57.691406 A 0.50046931 0.50046931 0 0 0 77.792969 58.013672 L 78.914062 54.683594 A 0.50004997 0.50004997 0 0 0 78.916016 54.681641 A 0.50004997 0.50004997 0 0 0 78.5 53.869141 z M 38.009766 54.667969 L 36.923828 55.767578 L 37.478516 56.306641 L 38.554688 55.207031 L 38.009766 54.667969 z M 32.900391 54.978516 L 32.207031 55.324219 L 32.886719 56.705078 L 33.580078 56.365234 L 32.900391 54.978516 z M 7.0800781 55.136719 C 5.9272458 55.136719 5 56.065918 5 57.21875 L 5 60.599609 C 5 61.752442 5.9272458 62.681641 7.0800781 62.681641 L 17.355469 62.681641 C 18.508301 62.681641 19.435547 61.752442 19.435547 60.599609 L 19.435547 59.429688 L 20.277344 60.078125 L 20.75 59.466797 L 20.070312 58.947266 L 20.869141 58.638672 L 20.595703 57.916016 L 20.289062 58.033203 L 20.470703 57.761719 L 19.828125 57.332031 L 19.435547 57.919922 L 19.435547 57.21875 C 19.435547 56.065918 18.508301 55.136719 17.355469 55.136719 L 7.0800781 55.136719 z M 21.119141 55.40625 L 20.263672 56.691406 L 20.90625 57.126953 L 21.761719 55.841797 L 21.119141 55.40625 z M 27.083984 55.427734 L 25.644531 55.982422 L 25.917969 56.705078 L 27.365234 56.152344 L 27.083984 55.427734 z M 24.921875 56.261719 L 23.482422 56.808594 L 23.755859 57.53125 L 25.201172 56.978516 L 24.921875 56.261719 z M 36.384766 56.314453 L 35.300781 57.414062 L 35.845703 57.960938 L 36.931641 56.859375 L 36.384766 56.314453 z M 29.046875 56.527344 L 28.419922 56.978516 L 29.314453 58.232422 L 29.941406 57.783203 L 29.046875 56.527344 z M 33.919922 57.060547 L 33.226562 57.398438 L 33.912109 58.787109 L 33.976562 58.755859 L 33.667969 59.068359 L 34.222656 59.605469 L 34.283203 59.544922 L 34.931641 60.869141 L 35.625 60.529297 L 34.945312 59.140625 L 34.433594 59.390625 L 35.306641 58.505859 L 34.753906 57.966797 L 34.496094 58.228516 L 33.919922 57.060547 z M 22.757812 57.089844 L 21.318359 57.642578 L 21.591797 58.359375 L 23.039062 57.8125 L 22.757812 57.089844 z M 26.53125 57.960938 L 25.873047 59.355469 L 26.574219 59.679688 L 27.232422 58.285156 L 26.53125 57.960938 z M 30.390625 58.417969 L 29.763672 58.861328 L 30.65625 60.123047 L 31.285156 59.671875 L 30.390625 58.417969 z M 33.130859 59.613281 L 32.044922 60.712891 L 32.591797 61.259766 L 33.675781 60.160156 L 33.130859 59.613281 z M 21.363281 59.939453 L 20.890625 60.550781 L 22.115234 61.496094 L 22.582031 60.882812 L 21.363281 59.939453 z M 25.541016 60.048828 L 24.884766 61.451172 L 25.585938 61.777344 L 26.242188 60.380859 L 25.541016 60.048828 z M 31.734375 60.300781 L 31.107422 60.75 L 31.486328 61.279297 L 30.414062 62.367188 L 30.966797 62.90625 L 31.943359 61.916016 L 32.007812 62.005859 L 32.634766 61.5625 L 31.734375 60.300781 z M 35.964844 61.222656 L 35.271484 61.5625 L 35.957031 62.951172 L 36.644531 62.611328 L 35.964844 61.222656 z M 23.193359 61.355469 L 22.720703 61.96875 L 23.947266 62.914062 L 24.419922 62.300781 L 23.193359 61.355469 z M 24.552734 62.146484 L 23.894531 63.548828 L 24.595703 63.873047 L 24.753906 63.537109 L 25.785156 64.330078 L 26.257812 63.71875 L 25.091797 62.820312 L 25.253906 62.478516 L 24.552734 62.146484 z M 33.078125 62.189453 L 32.451172 62.640625 L 33.351562 63.894531 L 33.978516 63.445312 L 33.078125 62.189453 z M 29.875 62.919922 L 28.789062 64.021484 L 29.34375 64.560547 L 30.427734 63.458984 L 29.875 62.919922 z M 36.990234 63.296875 L 36.296875 63.644531 L 36.976562 65.025391 L 37.669922 64.685547 L 36.990234 63.296875 z M 34.429688 64.080078 L 33.800781 64.523438 L 34.695312 65.785156 L 35.322266 65.333984 L 34.429688 64.080078 z M 26.863281 64.191406 L 26.398438 64.794922 L 27.320312 65.509766 L 27.166016 65.666016 L 27.710938 66.212891 L 28.796875 65.113281 L 28.25 64.566406 L 27.865234 64.957031 L 26.863281 64.191406 z M 23.570312 64.242188 L 22.90625 65.644531 L 23.607422 65.96875 L 24.263672 64.574219 L 23.570312 64.242188 z M 38.009766 65.378906 L 37.316406 65.71875 L 37.994141 67.105469 L 38.689453 66.767578 L 38.009766 65.378906 z M 28.701172 65.599609 L 28.228516 66.212891 L 29.453125 67.158203 L 29.925781 66.544922 L 28.701172 65.599609 z M 35.773438 65.962891 L 35.144531 66.412109 L 36.039062 67.667969 L 36.673828 67.224609 L 35.773438 65.962891 z M 26.619141 66.220703 L 25.533203 67.320312 L 26.087891 67.859375 L 27.171875 66.759766 L 26.619141 66.220703 z M 22.582031 66.337891 L 21.916016 67.740234 L 22.617188 68.066406 L 23.275391 66.669922 L 22.582031 66.337891 z M 30.539062 67.017578 L 30.066406 67.630859 L 31.285156 68.576172 L 31.757812 67.962891 L 30.539062 67.017578 z M 39.035156 67.460938 L 38.341797 67.800781 L 39.021484 69.1875 L 39.714844 68.847656 L 39.035156 67.460938 z M 37.115234 67.851562 L 36.488281 68.302734 L 37.388672 69.556641 L 38.017578 69.107422 L 37.115234 67.851562 z M 24.994141 67.867188 L 23.910156 68.966797 L 24.457031 69.513672 L 25.541016 68.412109 L 24.994141 67.867188 z M 21.591797 68.435547 L 20.927734 69.837891 L 21.628906 70.162109 L 22.285156 68.767578 L 21.591797 68.435547 z M 32.369141 68.435547 L 31.896484 69.046875 L 33.123047 69.992188 L 33.595703 69.380859 L 32.369141 68.435547 z M 23.363281 69.519531 L 22.285156 70.621094 L 22.832031 71.158203 L 23.917969 70.058594 L 23.363281 69.519531 z M 40.054688 69.542969 L 39.359375 69.882812 L 40.039062 71.269531 L 40.732422 70.929688 L 40.054688 69.542969 z M 38.466797 69.734375 L 37.832031 70.185547 L 38.732422 71.447266 L 39.359375 70.996094 L 38.466797 69.734375 z M 34.207031 69.851562 L 33.734375 70.457031 L 34.960938 71.402344 L 35.425781 70.789062 L 34.207031 69.851562 z M 7.0800781 70.353516 C 5.9272458 70.353516 5 71.282715 5 72.435547 L 5 75.816406 C 5 76.969239 5.9272458 77.898437 7.0800781 77.898438 L 17.355469 77.898438 C 18.508301 77.898438 19.435547 76.969239 19.435547 75.816406 L 19.435547 74.601562 L 20.779297 74.783203 L 20.882812 74.023438 L 20.119141 73.916016 L 20.662109 73.365234 L 20.294922 73 L 20.314453 72.960938 L 20.203125 72.908203 L 20.115234 72.820312 L 20.083984 72.851562 L 19.613281 72.628906 L 19.435547 73.007812 L 19.435547 72.435547 C 19.435547 71.282715 18.508301 70.353516 17.355469 70.353516 L 7.0800781 70.353516 z M 20.603516 70.53125 L 19.945312 71.933594 L 20.640625 72.257812 L 21.296875 70.863281 L 20.603516 70.53125 z M 21.740234 71.166016 L 20.654297 72.273438 L 21.208984 72.8125 L 22.292969 71.712891 L 21.740234 71.166016 z M 36.039062 71.261719 L 35.566406 71.875 L 36.791016 72.820312 L 37.263672 72.207031 L 36.039062 71.261719 z M 41.072266 71.617188 L 40.386719 71.962891 L 41.066406 73.34375 L 41.759766 73.003906 L 41.072266 71.617188 z M 39.810547 71.625 L 39.183594 72.074219 L 40.076172 73.330078 L 40.703125 72.886719 L 39.810547 71.625 z M 37.876953 72.679688 L 37.404297 73.292969 L 38.628906 74.236328 L 39.101562 73.625 L 37.876953 72.679688 z M 49.998047 73.306641 C 52.905403 73.306641 55.246101 75.641464 55.246094 78.548828 C 55.246086 81.456154 52.905388 83.789062 49.998047 83.789062 C 47.090702 83.789062 44.755867 81.456154 44.755859 78.548828 C 44.755848 75.641464 47.090691 73.306641 49.998047 73.306641 z M 41.154297 73.513672 L 40.527344 73.957031 L 41.419922 75.21875 L 41.837891 74.923828 L 42.083984 75.425781 L 42.777344 75.085938 L 42.099609 73.699219 L 41.498047 73.992188 L 41.154297 73.513672 z M 39.714844 74.097656 L 39.242188 74.708984 L 40.460938 75.654297 L 40.931641 75.041016 L 39.714844 74.097656 z M 21.650391 74.126953 L 21.546875 74.894531 L 23.076172 75.107422 L 23.179688 74.339844 L 21.650391 74.126953 z M 23.947266 74.443359 L 23.84375 75.210938 L 25.371094 75.425781 L 25.474609 74.658203 L 23.947266 74.443359 z M 26.242188 74.761719 L 26.138672 75.529297 L 27.667969 75.744141 L 27.771484 74.974609 L 26.242188 74.761719 z M 28.539062 75.078125 L 28.435547 75.847656 L 29.962891 76.060547 L 30.066406 75.292969 L 28.539062 75.078125 z M 30.833984 75.404297 L 30.730469 76.164062 L 32.259766 76.378906 L 32.361328 75.611328 L 30.833984 75.404297 z M 33.130859 75.720703 L 33.027344 76.482422 L 34.554688 76.695312 L 34.658203 75.927734 L 33.130859 75.720703 z M 35.425781 76.039062 L 35.322266 76.798828 L 36.849609 77.013672 L 36.953125 76.251953 L 35.425781 76.039062 z M 37.720703 76.355469 L 37.617188 77.123047 L 39.146484 77.330078 L 39.25 76.570312 L 37.720703 76.355469 z M 40.017578 76.673828 L 39.914062 77.441406 L 41.441406 77.648438 L 41.544922 76.888672 L 40.017578 76.673828 z M 42.527344 76.767578 L 42.730469 77.050781 L 42.349609 76.998047 L 42.527344 76.767578 z M 42.875 77.035156 L 42.894531 77.074219 L 42.832031 77.066406 L 42.875 77.035156 z " transform="matrix(0.26458333,0,0,0.26458333,0,270.54165)"/></g></svg>
